<svg width="189" height="66" viewBox="0 0 189 66" fill="none" xmlns="http://www.w3.org/2000/svg">
<path d="M24.12 30.16H24.656V35.989H24.12C21.4847 35.989 19.028 36.5027 16.75 37.53C14.472 38.5573 12.6853 39.9867 11.39 41.818V65H5.293V30.83H10.653L11.39 35.118V36.123H11.524C14.74 32.1477 18.9387 30.16 24.12 30.16ZM25.7762 47.915C25.7762 42.5997 27.3395 38.3117 30.4662 35.051C33.5928 31.7903 37.7245 30.16 42.8612 30.16C48.0425 30.16 52.1965 31.7903 55.3232 35.051C58.4945 38.3117 60.0802 42.5997 60.0802 47.915C60.0802 53.2303 58.4945 57.5183 55.3232 60.779C52.1965 64.0397 48.0425 65.67 42.8612 65.67C37.7245 65.67 33.5928 64.0397 30.4662 60.779C27.3395 57.5183 25.7762 53.2303 25.7762 47.915ZM35.1562 57.094C37.3895 59.104 39.9802 60.109 42.9282 60.109C45.8762 60.109 48.4445 59.104 50.6332 57.094C52.8665 55.0393 53.9832 51.9797 53.9832 47.915C53.9832 43.8057 52.8665 40.746 50.6332 38.736C48.4445 36.726 45.8762 35.721 42.9282 35.721C39.9802 35.721 37.3895 36.726 35.1562 38.736C32.9675 40.746 31.8732 43.8057 31.8732 47.915C31.8732 51.9797 32.9675 55.0393 35.1562 57.094ZM92.2669 39.205C88.9615 36.9717 85.3659 35.855 81.4799 35.855C77.6385 35.855 74.6235 36.9717 72.4349 39.205C70.2462 41.3937 69.1519 44.297 69.1519 47.915C69.1519 51.533 70.2462 54.4587 72.4349 56.692C74.6235 58.8807 77.6385 59.975 81.4799 59.975C85.3659 59.975 88.9615 58.8583 92.2669 56.625H92.5349V62.387C88.8275 64.5757 84.9639 65.67 80.9439 65.67C75.9859 65.67 71.7649 64.062 68.2809 60.846C64.7969 57.63 63.0549 53.3197 63.0549 47.915C63.0549 42.5103 64.7969 38.2 68.2809 34.984C71.7649 31.768 75.9859 30.16 80.9439 30.16C84.9639 30.16 88.8275 31.2543 92.5349 33.443V39.205H92.2669ZM113.247 44.565L128.657 65H121.153L109.093 48.853H108.892L103.934 53.811V65H97.8367V16.09H103.934V46.039H104.135L118.942 30.83H127.116L113.247 44.565ZM161.078 47.915V50.059H135.216C135.573 53.1857 136.735 55.62 138.7 57.362C140.665 59.104 143.636 59.975 147.611 59.975C151.631 59.975 155.338 58.8583 158.733 56.625H159.068V62.521C155.316 64.6203 150.894 65.67 145.802 65.67C140.755 65.67 136.69 64.129 133.608 61.047C130.571 57.9203 129.052 53.7217 129.052 48.451C129.052 43.1357 130.414 38.7583 133.139 35.319C135.864 31.8797 139.839 30.16 145.065 30.16C150.291 30.16 154.266 31.8797 156.991 35.319C159.716 38.7583 161.078 42.957 161.078 47.915ZM135.216 45.101H154.981C154.802 41.885 153.708 39.4507 151.698 37.798C149.733 36.1453 147.522 35.319 145.065 35.319C142.608 35.319 140.397 36.1453 138.432 37.798C136.467 39.4507 135.395 41.885 135.216 45.101ZM183.946 36.056H174.231V56.29C174.231 58.166 174.745 59.3273 175.772 59.774C176.621 60.1313 177.715 60.31 179.055 60.31C180.395 60.31 181.869 59.9527 183.477 59.238H183.946V64.196C182.07 65.1787 180.06 65.67 177.916 65.67C171.395 65.67 168.134 62.722 168.134 56.826V36.056H161.769V35.654L174.231 23.46V30.83H183.946V36.056Z" fill="white"/>
<path d="M5.26618 16H9.77418L9.63618 4.155L16.3292 16H20.0552L26.8632 4.155L26.6332 16H31.1872V0.658999H23.8272L18.2612 10.848L12.6722 0.658999H5.26618V16ZM52.5262 5.857C52.5492 2.637 51.7902 1.441 49.4212 0.842999C48.4552 0.612999 47.1212 0.543999 42.9352 0.543999C40.0142 0.543999 38.1512 0.612999 37.0932 0.750999C35.1152 1.027 34.0342 1.648 33.3442 2.844C32.7462 3.925 32.5622 5.236 32.5622 8.525C32.5622 11.377 32.6772 12.458 33.1372 13.493C33.6662 14.758 34.6552 15.471 36.3342 15.839C37.3002 16.046 38.6572 16.115 42.1762 16.115C46.7072 16.115 48.1102 16.092 48.5932 16.046C50.5252 15.839 51.6062 15.149 52.1352 13.723C52.4342 12.895 52.5262 11.998 52.5262 9.468V7.352H42.0612V10.204H47.9722V10.457C47.9722 10.871 47.9722 10.94 47.9492 11.124C47.8802 11.883 47.4202 12.32 46.5002 12.481C45.9482 12.573 45.9482 12.573 43.5102 12.573C39.5082 12.573 39.4162 12.55 38.7722 12.366C37.5762 11.998 37.2542 11.239 37.2542 8.709C37.2542 7.72 37.3002 6.317 37.3692 5.903C37.4842 4.845 37.9442 4.385 39.0022 4.224C39.3472 4.178 41.2562 4.132 43.1882 4.132L44.8442 4.155H46.0172C47.3742 4.155 47.9032 4.615 47.9492 5.857H52.5262ZM53.9211 16H58.5901V10.112H60.9361L67.8591 16H74.6441L64.9841 8.249L73.7931 0.658999H67.3761L61.0281 6.386H58.5901V0.658999H53.9211V16Z" fill="white"/>
</svg>
