<svg width="173" height="173" viewBox="0 0 173 173" fill="none" xmlns="http://www.w3.org/2000/svg">
<mask id="mask0" mask-type="alpha" maskUnits="userSpaceOnUse" x="0" y="0" width="173" height="173">
<path d="M24.2026 49.3551C39.3194 34.238 65.47 29.1615 80.5869 44.2785L38.9651 85.9003L5.29989 84.1294C2.70287 83.2557 0.805625 81.1224 0.207333 78.5549C-0.408669 75.9365 0.368154 73.1893 2.26894 71.2885L24.2026 49.3551Z" fill="white"/>
<path d="M153.217 73.8747L147.005 80.5869L92.0993 25.6815L98.3834 19.0411C115.599 1.82508 141.004 -4.45219 164.105 3.2482C166.418 4.01953 168.239 5.84008 169.01 8.15337C176.71 31.254 170.434 56.6589 153.217 73.8747Z" fill="white"/>
<path d="M83.2436 133.721L126.445 93.2219C141.562 108.339 138.02 132.939 122.903 148.056L100.97 169.99C99.0688 171.89 96.3216 172.668 93.7032 172.051C91.1299 171.451 89.0003 169.549 88.1287 166.959L83.2436 133.721Z" fill="white"/>
<path d="M18.2778 112.437C18.5666 110.07 19.9324 107.965 21.9832 106.739L41.955 94.756L77.5754 130.179L65.5182 150.275C64.292 152.324 62.1875 153.69 59.8206 153.98C57.4536 154.269 46.0868 152.411 38.7143 148.059C31.5491 143.83 27.7847 140.215 23.6496 132.994C19.5257 125.794 17.9891 114.803 18.2778 112.437Z" fill="white"/>
<path d="M35.1687 93.222L79.0355 137.089C82.0665 140.119 86.9715 140.119 90.0023 137.089L150.319 76.7718L95.4857 21.9382L35.1687 82.2552C32.1379 85.286 32.1379 90.1912 35.1687 93.222ZM100.97 71.2878C103.998 74.3161 103.998 79.2262 100.97 82.2545C97.9409 85.2835 93.0313 85.2828 90.003 82.2545C86.974 79.2255 86.974 74.3168 90.003 71.2878C93.0313 68.2595 97.9407 68.2588 100.97 71.2878Z" fill="white"/>
</mask>
<g mask="url(#mask0)">
<rect width="173" height="173" fill="white"/>
</g>
</svg>
