<svg width="349" height="95" viewBox="0 0 349 95" fill="none" xmlns="http://www.w3.org/2000/svg">
<path d="M140.751 49.056H131.036V69.29C131.036 71.166 131.55 72.3273 132.577 72.774C133.426 73.1313 134.52 73.31 135.86 73.31C137.2 73.31 138.674 72.9527 140.282 72.238H140.751V77.196C138.875 78.1787 136.865 78.67 134.721 78.67C128.2 78.67 124.939 75.722 124.939 69.826V49.056H118.574V48.654L131.036 36.46V43.83H140.751V49.056ZM175.108 60.915V63.059H149.246C149.604 66.1857 150.765 68.62 152.73 70.362C154.696 72.104 157.666 72.975 161.641 72.975C165.661 72.975 169.369 71.8583 172.763 69.625H173.098V75.521C169.346 77.6203 164.924 78.67 159.832 78.67C154.785 78.67 150.72 77.129 147.638 74.047C144.601 70.9203 143.082 66.7217 143.082 61.451C143.082 56.1357 144.445 51.7583 147.169 48.319C149.894 44.8797 153.869 43.16 159.095 43.16C164.321 43.16 168.297 44.8797 171.021 48.319C173.746 51.7583 175.108 55.957 175.108 60.915ZM149.246 58.101H169.011C168.833 54.885 167.738 52.4507 165.728 50.798C163.763 49.1453 161.552 48.319 159.095 48.319C156.639 48.319 154.428 49.1453 152.462 50.798C150.497 52.4507 149.425 54.885 149.246 58.101ZM209.567 43.83L196.368 60.714L209.567 78H201.929L192.75 65.873H192.415L183.705 78H176.067L189.199 61.116L176.067 43.83H183.705L192.75 56.024H193.085L201.929 43.83H209.567ZM230.94 49.056H221.225V69.29C221.225 71.166 221.738 72.3273 222.766 72.774C223.614 73.1313 224.709 73.31 226.049 73.31C227.389 73.31 228.863 72.9527 230.471 72.238H230.94V77.196C229.064 78.1787 227.054 78.67 224.91 78.67C218.388 78.67 215.128 75.722 215.128 69.826V49.056H208.763V48.654L221.225 36.46V43.83H230.94V49.056Z" fill="#F97316"/>
<path d="M261.612 43.83H266.972V76.526C266.972 82.154 265.609 86.4867 262.885 89.524C260.16 92.5613 256.207 94.08 251.026 94.08C245.889 94.08 241.199 92.941 236.956 90.663V84.633H237.291C241.087 87.0897 245.532 88.318 250.624 88.318C257.458 88.318 260.875 84.6777 260.875 77.397V73.042H260.674C257.592 76.3473 253.907 78 249.619 78C245.331 78 241.512 76.4813 238.162 73.444C234.856 70.362 233.204 66.074 233.204 60.58C233.204 55.086 234.856 50.8203 238.162 47.783C241.512 44.701 245.331 43.16 249.619 43.16C253.907 43.16 257.592 44.8127 260.674 48.118H260.875L261.612 43.83ZM260.875 67.481V53.679C257.659 50.3737 254.309 48.721 250.825 48.721C247.385 48.721 244.594 49.7483 242.45 51.803C240.35 53.813 239.301 56.7387 239.301 60.58C239.301 64.4213 240.35 67.3693 242.45 69.424C244.594 71.434 247.385 72.439 250.825 72.439C254.309 72.439 257.659 70.7863 260.875 67.481ZM293.025 43.16H293.561V48.989H293.025C290.39 48.989 287.933 49.5027 285.655 50.53C283.377 51.5573 281.59 52.9867 280.295 54.818V78H274.198V43.83H279.558L280.295 48.118V49.123H280.429C283.645 45.1477 287.844 43.16 293.025 43.16ZM297.026 78V43.83H303.123V78H297.026ZM303.391 30.028V36.594H296.825V30.028H303.391ZM313.363 47.984C316.624 44.768 320.421 43.16 324.753 43.16C329.086 43.16 332.838 44.8127 336.009 48.118H336.21V29.09H342.307V78H336.947L336.21 73.712H336.009C332.838 77.0173 329.086 78.67 324.753 78.67C320.421 78.67 316.624 77.062 313.363 73.846C310.147 70.63 308.539 66.3197 308.539 60.915C308.539 55.5103 310.147 51.2 313.363 47.984ZM325.624 72.975C329.644 72.975 333.173 71.3 336.21 67.95V53.88C333.173 50.53 329.644 48.855 325.624 48.855C322.319 48.855 319.661 49.9047 317.651 52.004C315.641 54.1033 314.636 57.0737 314.636 60.915C314.636 64.7563 315.641 67.7267 317.651 69.826C319.661 71.9253 322.319 72.975 325.624 72.975Z" fill="#1E293B"/>
<path d="M119.436 29H123.944L123.806 17.155L130.499 29H134.225L141.033 17.155L140.803 29H145.357V13.659H137.997L132.431 23.848L126.842 13.659H119.436V29ZM166.696 18.857C166.719 15.637 165.96 14.441 163.591 13.843C162.625 13.613 161.291 13.544 157.105 13.544C154.184 13.544 152.321 13.613 151.263 13.751C149.285 14.027 148.204 14.648 147.514 15.844C146.916 16.925 146.732 18.236 146.732 21.525C146.732 24.377 146.847 25.458 147.307 26.493C147.836 27.758 148.825 28.471 150.504 28.839C151.47 29.046 152.827 29.115 156.346 29.115C160.877 29.115 162.28 29.092 162.763 29.046C164.695 28.839 165.776 28.149 166.305 26.723C166.604 25.895 166.696 24.998 166.696 22.468V20.352H156.231V23.204H162.142V23.457C162.142 23.871 162.142 23.94 162.119 24.124C162.05 24.883 161.59 25.32 160.67 25.481C160.118 25.573 160.118 25.573 157.68 25.573C153.678 25.573 153.586 25.55 152.942 25.366C151.746 24.998 151.424 24.239 151.424 21.709C151.424 20.72 151.47 19.317 151.539 18.903C151.654 17.845 152.114 17.385 153.172 17.224C153.517 17.178 155.426 17.132 157.358 17.132L159.014 17.155H160.187C161.544 17.155 162.073 17.615 162.119 18.857H166.696ZM168.091 29H172.76V23.112H175.106L182.029 29H188.814L179.154 21.249L187.963 13.659H181.546L175.198 19.386H172.76V13.659H168.091V29Z" fill="#1E293B"/>
<path d="M55.0243 70.2949L41.0991 56.3464C40.1939 55.4389 38.7244 55.4372 37.8168 56.3423C37.3804 56.7777 37.1352 57.3686 37.1349 57.9851V90.5004C37.1356 91.4989 37.7751 92.3851 38.7224 92.7006C38.9587 92.7804 39.2063 92.8213 39.4559 92.8213C40.1863 92.8213 40.8743 92.4773 41.3125 91.8929L55.2377 73.3261C55.9298 72.4029 55.8389 71.1117 55.0243 70.2949Z" fill="#FDBA74"/>
<path d="M44.8311 65.0915L30.9058 60.4498C29.6902 60.0434 28.3752 60.6994 27.9687 61.915C27.8095 62.3915 27.809 62.9067 27.9676 63.3834L37.2512 91.2339C37.5673 92.1829 38.4557 92.8226 39.4559 92.8213H39.5997C40.6483 92.7561 41.5223 91.9945 41.7303 90.9647L46.372 67.756C46.6059 66.6058 45.9444 65.4622 44.8311 65.0915Z" fill="#F97316"/>
<path d="M91.8425 0.427399C91.103 -0.0897922 90.1308 -0.13135 89.3499 0.320566L1.15704 51.3797C0.0482452 52.0227 -0.329476 53.4428 0.313477 54.5516C0.597638 55.0418 1.0513 55.4111 1.58872 55.5897L43.2714 69.4871L75.6708 83.3751C76.8494 83.879 78.2132 83.3322 78.7172 82.1536C78.787 81.9899 78.8379 81.8189 78.8688 81.6438L92.794 2.7342C92.9524 1.84581 92.5812 0.945895 91.8425 0.427399Z" fill="#FB923C"/>
<path d="M92.4041 3.67675C93.1528 2.6365 92.9165 1.1861 91.8762 0.437184C90.9496 -0.229703 89.6754 -0.12374 88.8719 0.687403L28.3481 64.5205L45.8149 70.5547L92.4041 3.67675Z" fill="#F97316"/>
</svg>
