<svg width="98" height="98" viewBox="0 0 98 98" fill="none" xmlns="http://www.w3.org/2000/svg">
<path d="M44.6245 27.8663C36.0894 19.3311 22.2001 19.3311 13.665 27.8663L1.28106 40.2501C0.207863 41.3233 -0.230738 42.8744 0.117062 44.3528C0.454862 45.8024 1.52606 47.0069 2.99236 47.5002L21.5681 53.6921L44.6245 27.8663ZM70.5979 41.4559L84.8719 43.346L86.5076 41.7103C96.2282 31.9901 99.7722 17.6463 95.4242 4.60346C94.9892 3.29736 93.9612 2.26946 92.6552 1.83396C79.6121 -2.51374 65.2683 1.03046 55.5481 10.7508L53.9124 12.3865L55.0529 25.9109L70.5979 41.4559ZM69.3921 52.6339L43.5663 75.6905L49.7582 94.2665C50.2503 95.7284 51.4527 96.8025 52.9056 97.1415C54.384 97.4895 55.9351 97.0504 57.0083 95.9774L69.3921 83.5935C77.9273 75.0585 77.9273 61.1689 69.3921 52.6339Z" fill="url(#paint0_linear)"/>
<path d="M44.9993 70.8348L66.2962 49.5379L47.7205 30.9622L26.4236 52.2591L11.4124 61.2658C10.2545 61.9581 9.48337 63.1465 9.32027 64.4827C9.15727 65.819 10.0249 72.0244 12.3533 76.0895C14.688 80.1665 16.8134 82.2075 20.8589 84.5955C25.0215 87.0525 31.4393 88.1015 32.7757 87.9385C34.1121 87.7745 35.3003 87.0035 35.9926 85.8465L44.9993 70.8348Z" fill="url(#paint1_linear)"/>
<path d="M19.8569 52.6339L44.6245 77.4015C46.3358 79.1125 49.1052 79.1125 50.8164 77.4015L84.8719 43.346L53.9124 12.3865L19.8569 46.442C18.1457 48.1532 18.1457 50.9227 19.8569 52.6339ZM57.0088 40.2497C58.7185 41.9595 58.7185 44.7318 57.0088 46.4416C55.2986 48.1518 52.5266 48.1514 50.8168 46.4416C49.1066 44.7314 49.1066 41.9599 50.8168 40.2497C52.5266 38.5399 55.2985 38.5395 57.0088 40.2497Z" fill="url(#paint2_linear)"/>
<defs>
<linearGradient id="paint0_linear" x1="16.7609" y1="80.4975" x2="94.3662" y2="2.89216" gradientUnits="userSpaceOnUse">
<stop stop-color="#FD3A84"/>
<stop offset="1" stop-color="#FFA68D"/>
</linearGradient>
<linearGradient id="paint1_linear" x1="16.7609" y1="80.4975" x2="94.3662" y2="2.89216" gradientUnits="userSpaceOnUse">
<stop stop-color="#FD3A84"/>
<stop offset="1" stop-color="#FFA68D"/>
</linearGradient>
<linearGradient id="paint2_linear" x1="-11.3091" y1="108.567" x2="69.392" y2="27.8663" gradientUnits="userSpaceOnUse">
<stop stop-color="#FFC2CC"/>
<stop offset="1" stop-color="#FFF2F4"/>
</linearGradient>
</defs>
</svg>
