<svg width="207" height="207" viewBox="0 0 207 207" fill="none" xmlns="http://www.w3.org/2000/svg">
<rect width="207" height="207" rx="20" fill="url(#paint0_linear)"/>
<mask id="mask0" mask-type="alpha" maskUnits="userSpaceOnUse" x="33" y="37" width="140" height="141">
<path d="M52.706 77.4327C64.9752 65.1634 86.1997 61.0432 98.4689 73.3125L64.6876 107.094L37.3641 105.656C35.2563 104.947 33.7165 103.216 33.2309 101.132C32.7309 99.0069 33.3614 96.7772 34.9041 95.2345L52.706 77.4327Z" fill="white"/>
<path d="M157.417 97.3335L152.375 102.781L107.813 58.2188L112.913 52.8292C126.886 38.8563 147.505 33.7615 166.254 40.0113C168.132 40.6373 169.61 42.1149 170.235 43.9925C176.485 62.7415 171.391 83.3607 157.417 97.3335Z" fill="white"/>
<path d="M100.625 145.906L135.689 113.036C147.958 125.305 145.083 145.272 132.814 157.541L115.012 175.343C113.469 176.885 111.24 177.516 109.114 177.016C107.026 176.529 105.297 174.985 104.59 172.883L100.625 145.906Z" fill="white"/>
<path d="M47.8979 128.632C48.1324 126.711 49.2409 125.003 50.9053 124.007L67.115 114.282L96.0253 143.032L86.2394 159.342C85.2442 161.005 83.5362 162.114 81.6151 162.349C79.694 162.584 70.4684 161.076 64.4847 157.544C58.6693 154.111 55.614 151.177 52.2579 145.316C48.9108 139.473 47.6636 130.553 47.8979 128.632Z" fill="white"/>
<path d="M61.6068 113.037L97.2102 148.64C99.6702 151.1 103.651 151.1 106.111 148.64L155.066 99.6852L110.562 55.1809L61.6068 104.136C59.147 106.596 59.147 110.577 61.6068 113.037ZM115.013 95.2343C117.47 97.6921 117.47 101.677 115.013 104.135C112.554 106.594 108.57 106.593 106.112 104.135C103.653 101.677 103.653 97.6927 106.112 95.2343C108.57 92.7764 112.554 92.7759 115.013 95.2343Z" fill="white"/>
</mask>
<g mask="url(#mask0)">
<rect x="23" y="25.8752" width="162.438" height="162.438" fill="white"/>
</g>
<defs>
<linearGradient id="paint0_linear" x1="35.673" y1="171.327" x2="200.844" y2="6.15512" gradientUnits="userSpaceOnUse">
<stop stop-color="#FD3A84"/>
<stop offset="1" stop-color="#FFA68D"/>
</linearGradient>
</defs>
</svg>
