<svg width="304" height="98" viewBox="0 0 304 98" fill="none" xmlns="http://www.w3.org/2000/svg">
<path d="M138.562 46.1724H139.098V52.0014H138.562C135.926 52.0014 133.47 52.5151 131.192 53.5424C128.914 54.5698 127.127 55.9991 125.832 57.8305V81.0125H119.735V46.8424H125.095L125.832 51.1305V52.1354H125.966C129.182 48.1601 133.38 46.1724 138.562 46.1724ZM140.218 63.9274C140.218 58.6121 141.781 54.3241 144.908 51.0634C148.034 47.8028 152.166 46.1724 157.303 46.1724C162.484 46.1724 166.638 47.8028 169.765 51.0634C172.936 54.3241 174.522 58.6121 174.522 63.9274C174.522 69.2428 172.936 73.5308 169.765 76.7915C166.638 80.0521 162.484 81.6825 157.303 81.6825C152.166 81.6825 148.034 80.0521 144.908 76.7915C141.781 73.5308 140.218 69.2428 140.218 63.9274ZM149.598 73.1065C151.831 75.1165 154.422 76.1215 157.37 76.1215C160.318 76.1215 162.886 75.1165 165.075 73.1065C167.308 71.0518 168.425 67.9921 168.425 63.9274C168.425 59.8181 167.308 56.7585 165.075 54.7484C162.886 52.7385 160.318 51.7335 157.37 51.7335C154.422 51.7335 151.831 52.7385 149.598 54.7484C147.409 56.7585 146.315 59.8181 146.315 63.9274C146.315 67.9921 147.409 71.0518 149.598 73.1065ZM206.708 55.2174C203.403 52.9841 199.807 51.8674 195.921 51.8674C192.08 51.8674 189.065 52.9841 186.876 55.2174C184.688 57.4061 183.593 60.3094 183.593 63.9274C183.593 67.5455 184.688 70.4711 186.876 72.7045C189.065 74.8931 192.08 75.9875 195.921 75.9875C199.807 75.9875 203.403 74.8708 206.708 72.6375H206.976V78.3995C203.269 80.5881 199.405 81.6825 195.385 81.6825C190.427 81.6825 186.206 80.0745 182.722 76.8585C179.238 73.6425 177.496 69.3321 177.496 63.9274C177.496 58.5228 179.238 54.2125 182.722 50.9965C186.206 47.7804 190.427 46.1724 195.385 46.1724C199.405 46.1724 203.269 47.2668 206.976 49.4555V55.2174H206.708ZM227.688 60.5775L243.098 81.0125H235.594L223.534 64.8655H223.333L218.375 69.8235V81.0125H212.278V32.1024H218.375V62.0514H218.576L233.383 46.8424H241.557L227.688 60.5775ZM275.519 63.9274V66.0715H249.657C250.015 69.1981 251.176 71.6325 253.141 73.3745C255.107 75.1165 258.077 75.9875 262.052 75.9875C266.072 75.9875 269.78 74.8708 273.174 72.6375H273.509V78.5335C269.757 80.6328 265.335 81.6825 260.243 81.6825C255.196 81.6825 251.131 80.1415 248.049 77.0595C245.012 73.9328 243.493 69.7341 243.493 64.4635C243.493 59.1481 244.856 54.7708 247.58 51.3314C250.305 47.8921 254.28 46.1724 259.506 46.1724C264.732 46.1724 268.708 47.8921 271.432 51.3314C274.157 54.7708 275.519 58.9694 275.519 63.9274ZM249.657 61.1134H269.422C269.244 57.8974 268.149 55.4631 266.139 53.8104C264.174 52.1578 261.963 51.3314 259.506 51.3314C257.05 51.3314 254.839 52.1578 252.873 53.8104C250.908 55.4631 249.836 57.8974 249.657 61.1134ZM298.387 52.0685H288.672V72.3025C288.672 74.1785 289.186 75.3398 290.213 75.7865C291.062 76.1438 292.156 76.3225 293.496 76.3225C294.836 76.3225 296.31 75.9651 297.918 75.2505H298.387V80.2085C296.511 81.1911 294.501 81.6825 292.357 81.6825C285.836 81.6825 282.575 78.7345 282.575 72.8385V52.0685H276.21V51.6664L288.672 39.4725V46.8424H298.387V52.0685Z" fill="white"/>
<path d="M119.708 32.0125H124.216L124.078 20.1675L130.771 32.0125H134.497L141.305 20.1675L141.075 32.0125H145.629V16.6714H138.269L132.703 26.8605L127.114 16.6714H119.708V32.0125ZM166.968 21.8695C166.991 18.6495 166.232 17.4535 163.863 16.8555C162.897 16.6255 161.563 16.5565 157.377 16.5565C154.456 16.5565 152.593 16.6255 151.535 16.7635C149.557 17.0395 148.476 17.6605 147.786 18.8565C147.188 19.9375 147.004 21.2485 147.004 24.5375C147.004 27.3895 147.119 28.4705 147.579 29.5055C148.108 30.7705 149.097 31.4835 150.776 31.8515C151.742 32.0585 153.099 32.1275 156.618 32.1275C161.149 32.1275 162.552 32.1045 163.035 32.0585C164.967 31.8515 166.048 31.1615 166.577 29.7355C166.876 28.9075 166.968 28.0105 166.968 25.4805V23.3645H156.503V26.2165H162.414V26.4695C162.414 26.8835 162.414 26.9525 162.391 27.1365C162.322 27.8955 161.862 28.3325 160.942 28.4935C160.39 28.5855 160.39 28.5855 157.952 28.5855C153.95 28.5855 153.858 28.5625 153.214 28.3785C152.018 28.0105 151.696 27.2515 151.696 24.7215C151.696 23.7325 151.742 22.3295 151.811 21.9155C151.926 20.8575 152.386 20.3975 153.444 20.2365C153.789 20.1905 155.698 20.1445 157.63 20.1445L159.286 20.1675H160.459C161.816 20.1675 162.345 20.6275 162.391 21.8695H166.968ZM168.363 32.0125H173.032V26.1245H175.378L182.301 32.0125H189.086L179.426 24.2615L188.235 16.6714H181.818L175.47 22.3985H173.032V16.6714H168.363V32.0125Z" fill="white"/>
<path d="M44.6245 27.8663C36.0894 19.3311 22.2001 19.3311 13.665 27.8663L1.28106 40.2501C0.207863 41.3233 -0.230738 42.8744 0.117062 44.3528C0.454862 45.8024 1.52606 47.0069 2.99236 47.5002L21.5681 53.6921L44.6245 27.8663ZM70.5979 41.4559L84.8719 43.346L86.5076 41.7103C96.2282 31.9901 99.7722 17.6463 95.4242 4.60346C94.9892 3.29736 93.9612 2.26946 92.6552 1.83396C79.6121 -2.51374 65.2683 1.03046 55.5481 10.7508L53.9124 12.3865L55.0529 25.9109L70.5979 41.4559ZM69.3921 52.6339L43.5663 75.6905L49.7582 94.2665C50.2503 95.7284 51.4527 96.8025 52.9056 97.1415C54.384 97.4895 55.9351 97.0504 57.0083 95.9774L69.3921 83.5935C77.9273 75.0585 77.9273 61.1689 69.3921 52.6339Z" fill="url(#paint0_linear)"/>
<path d="M44.9993 70.8348L66.2962 49.5379L47.7205 30.9622L26.4236 52.2591L11.4124 61.2658C10.2545 61.9581 9.48337 63.1465 9.32027 64.4827C9.15727 65.819 10.0249 72.0244 12.3533 76.0895C14.688 80.1665 16.8134 82.2075 20.8589 84.5955C25.0215 87.0525 31.4393 88.1015 32.7757 87.9385C34.1121 87.7745 35.3003 87.0035 35.9926 85.8465L44.9993 70.8348Z" fill="url(#paint1_linear)"/>
<path d="M19.8569 52.6339L44.6245 77.4015C46.3358 79.1125 49.1052 79.1125 50.8164 77.4015L84.8719 43.346L53.9124 12.3865L19.8569 46.442C18.1457 48.1532 18.1457 50.9227 19.8569 52.6339ZM57.0088 40.2497C58.7185 41.9595 58.7185 44.7318 57.0088 46.4416C55.2986 48.1518 52.5266 48.1514 50.8168 46.4416C49.1066 44.7314 49.1066 41.9599 50.8168 40.2497C52.5266 38.5399 55.2985 38.5395 57.0088 40.2497Z" fill="url(#paint2_linear)"/>
<defs>
<linearGradient id="paint0_linear" x1="16.7609" y1="80.4975" x2="94.3662" y2="2.89216" gradientUnits="userSpaceOnUse">
<stop stop-color="#FD3A84"/>
<stop offset="1" stop-color="#FFA68D"/>
</linearGradient>
<linearGradient id="paint1_linear" x1="16.7609" y1="80.4975" x2="94.3662" y2="2.89216" gradientUnits="userSpaceOnUse">
<stop stop-color="#FD3A84"/>
<stop offset="1" stop-color="#FFA68D"/>
</linearGradient>
<linearGradient id="paint2_linear" x1="-11.3091" y1="108.567" x2="69.392" y2="27.8663" gradientUnits="userSpaceOnUse">
<stop stop-color="#FFC2CC"/>
<stop offset="1" stop-color="#FFF2F4"/>
</linearGradient>
</defs>
</svg>
