<svg width="93" height="93" viewBox="0 0 93 93" fill="none" xmlns="http://www.w3.org/2000/svg">
<path d="M55.0243 70.2949L41.0991 56.3464C40.1939 55.4389 38.7244 55.4372 37.8168 56.3423C37.3804 56.7777 37.1352 57.3686 37.1349 57.985V90.5004C37.1356 91.4989 37.7751 92.3851 38.7224 92.7006C38.9587 92.7804 39.2063 92.8213 39.4559 92.8213C40.1863 92.8213 40.8743 92.4773 41.3125 91.8929L55.2377 73.326C55.9298 72.4028 55.8389 71.1117 55.0243 70.2949Z" fill="#FDBA74"/>
<path d="M44.8311 65.0915L30.9058 60.4498C29.6902 60.0434 28.3752 60.6994 27.9687 61.915C27.8095 62.3915 27.809 62.9067 27.9676 63.3834L37.2512 91.2339C37.5673 92.1829 38.4557 92.8226 39.4559 92.8213H39.5997C40.6483 92.7561 41.5223 91.9945 41.7303 90.9647L46.372 67.756C46.6059 66.6058 45.9444 65.4622 44.8311 65.0915Z" fill="#F97316"/>
<path d="M91.8425 0.427383C91.103 -0.0898075 90.1308 -0.131365 89.3499 0.320551L1.15704 51.3797C0.0482452 52.0227 -0.329476 53.4428 0.313477 54.5516C0.597638 55.0418 1.0513 55.4111 1.58872 55.5897L43.2714 69.487L75.6708 83.375C76.8494 83.879 78.2132 83.3322 78.7172 82.1535C78.787 81.9899 78.8379 81.8189 78.8688 81.6437L92.794 2.73418C92.9524 1.8458 92.5812 0.94588 91.8425 0.427383Z" fill="#FB923C"/>
<path d="M92.4041 3.67675C93.1528 2.6365 92.9165 1.1861 91.8762 0.437184C90.9496 -0.229703 89.6754 -0.12374 88.8719 0.687403L28.3481 64.5205L45.8149 70.5547L92.4041 3.67675Z" fill="#F97316"/>
</svg>
