<svg width="144" height="144" viewBox="0 0 144 144" fill="none" xmlns="http://www.w3.org/2000/svg">
<rect width="144" height="144" fill="white"/>
<rect width="144" height="144" fill="url(#paint0_linear)"/>
<mask id="mask0" mask-type="alpha" maskUnits="userSpaceOnUse" x="23" y="26" width="98" height="98">
<path d="M36.665 53.8663C45.2001 45.3311 59.9649 42.4648 68.5 51L45 74.5L25.9924 73.5002C24.5261 73.0069 23.4549 71.8024 23.1171 70.3528C22.7693 68.8744 23.2079 67.3233 24.2811 66.2501L36.665 53.8663Z" fill="white"/>
<path d="M109.508 67.7103L106 71.5L75 40.5L78.5481 36.7508C88.2683 27.0305 102.612 23.4863 115.655 27.834C116.961 28.2695 117.989 29.2974 118.424 30.6035C122.772 43.6463 119.228 57.9901 109.508 67.7103Z" fill="white"/>
<path d="M70 101.5L94.3921 78.6339C102.927 87.1689 100.927 101.058 92.3921 109.593L80.0083 121.977C78.9351 123.05 77.384 123.489 75.9056 123.141C74.4527 122.802 73.2503 121.728 72.7582 120.266L70 101.5Z" fill="white"/>
<path d="M33.3203 89.4827C33.4834 88.1465 34.2545 86.9581 35.4124 86.2658L46.6887 79.5L66.8002 99.5L59.9926 110.846C59.3003 112.003 58.1121 112.774 56.7757 112.938C55.4393 113.101 49.0215 112.052 44.8589 109.595C40.8134 107.207 38.688 105.166 36.3533 101.089C34.0249 97.0244 33.1573 90.819 33.3203 89.4827Z" fill="white"/>
<path d="M42.8568 78.6339L67.6244 103.401C69.3357 105.112 72.1051 105.112 73.8163 103.401L107.872 69.346L76.9123 38.3865L42.8568 72.442C41.1456 74.1532 41.1456 76.9227 42.8568 78.6339ZM80.0087 66.2497C81.7184 67.9595 81.7184 70.7318 80.0087 72.4416C78.2985 74.1518 75.5265 74.1514 73.8167 72.4416C72.1065 70.7314 72.1065 67.9599 73.8167 66.2497C75.5265 64.5399 78.2984 64.5395 80.0087 66.2497Z" fill="white"/>
</mask>
<g mask="url(#mask0)">
<rect x="16" y="18" width="113" height="113" fill="url(#paint1_linear)"/>
</g>
<defs>
<linearGradient id="paint0_linear" x1="24.816" y1="119.184" x2="139.718" y2="4.28183" gradientUnits="userSpaceOnUse">
<stop stop-color="#FD3A84"/>
<stop offset="1" stop-color="#FFA68D"/>
</linearGradient>
<linearGradient id="paint1_linear" x1="-34.9323" y1="181.933" x2="102.616" y2="44.3844" gradientUnits="userSpaceOnUse">
<stop stop-color="#FFC2CC"/>
<stop offset="1" stop-color="#FFF2F4"/>
</linearGradient>
</defs>
</svg>
